<svg width="1100" height="1126" viewBox="0 0 1100 1126" fill="none" xmlns="http://www.w3.org/2000/svg">
<path d="M809.035 87.9688H291.644C255.321 87.9688 220.485 102.739 194.801 129.031C169.117 155.322 154.688 190.981 154.688 228.162V882.4C154.688 894.793 159.497 906.68 168.059 915.444C176.62 924.207 188.232 929.131 200.34 929.131H748.166C760.273 929.131 771.885 924.207 780.447 915.444C789.008 906.68 793.818 894.793 793.818 882.4C793.818 870.006 789.008 858.119 780.447 849.356C771.885 840.592 760.273 835.668 748.166 835.668H245.992V820.091C245.992 807.697 250.802 795.811 259.363 787.047C267.924 778.284 279.536 773.36 291.644 773.36H809.035C821.143 773.36 832.755 768.437 841.316 759.673C849.878 750.909 854.688 739.023 854.688 726.629V134.7C854.688 122.306 849.878 110.42 841.316 101.656C832.755 92.8922 821.143 87.9688 809.035 87.9688ZM763.383 679.898H291.644C276.089 679.868 260.646 682.581 245.992 687.92V228.162C245.992 215.769 250.802 203.882 259.363 195.118C267.924 186.355 279.536 181.431 291.644 181.431H763.383V679.898Z" fill="currentColor"/>
</svg>
