<svg width="865" height="865" viewBox="0 0 865 865" fill="none" xmlns="http://www.w3.org/2000/svg">
<path d="M832.067 835.31C811.389 854.003 783.344 864.504 754.102 864.504C724.859 864.504 696.814 854.003 676.136 835.31L432.546 583.606L188.956 835.227C178.748 844.607 166.586 852.067 153.173 857.177C139.759 862.287 125.36 864.946 110.804 864.999C96.2488 865.053 81.8257 862.5 68.3668 857.49C54.9079 852.478 42.6796 845.108 32.3873 835.803C22.095 826.498 13.9423 815.443 8.3995 803.275C2.85672 791.108 0.0335253 778.068 0.0927937 764.909C0.152062 751.75 3.0926 738.732 8.7448 726.606C14.397 714.479 22.649 703.485 33.0248 694.256L286.447 432.583L32.933 170.744C22.5571 161.516 14.3051 150.521 8.65292 138.394C3.00072 126.268 0.0601825 113.25 0.000914171 100.091C-0.0583542 86.9317 2.76484 73.8923 8.30762 61.7247C13.8504 49.557 22.0031 38.5019 32.2954 29.197C42.5877 19.8921 54.816 12.5216 68.2749 7.51059C81.7338 2.49958 96.157 -0.0527557 110.712 0.000826466C125.268 0.0544087 139.668 2.71283 153.081 7.82277C166.494 12.9327 178.656 20.393 188.864 29.7734L432.546 281.561L676.136 29.7734C686.344 20.393 698.506 12.9327 711.919 7.82277C725.333 2.71283 739.732 0.0544087 754.288 0.000826466C768.843 -0.0527557 783.266 2.49958 796.725 7.51059C810.184 12.5216 822.412 19.8921 832.705 29.197C842.997 38.5019 851.15 49.557 856.692 61.7247C862.235 73.8923 865.058 86.9317 864.999 100.091C864.94 113.25 861.999 126.268 856.347 138.394C850.695 150.521 842.443 161.516 832.067 170.744L578.645 432.583L832.067 694.256C842.319 703.514 850.452 714.508 856.001 726.609C861.55 738.711 864.406 751.683 864.406 764.783C864.406 777.883 861.55 790.854 856.001 802.956C850.452 815.058 842.319 826.052 832.067 835.31Z"/>
</svg>
