<svg width="100%" height="100%" viewBox="0 0 946 946" fill="none" xmlns="http://www.w3.org/2000/svg">
<path d="M473 31.6096C333.077 31.6096 219.646 145.041 219.646 284.964C219.747 327.922 230.772 370.154 241.041 388.917L473 914.39L694.685 407.682H694.569C715.391 370.13 726.327 327.902 726.352 284.964C726.354 145.041 612.923 31.6096 473 31.6096ZM473 158.285C489.635 158.285 506.108 161.562 521.477 167.928C536.846 174.294 550.811 183.625 562.574 195.389C574.337 207.152 583.668 221.117 590.034 236.486C596.399 251.856 599.676 268.328 599.675 284.964C599.675 318.56 586.329 350.781 562.573 374.537C538.817 398.293 506.596 411.639 473 411.639C439.403 411.639 407.183 398.293 383.427 374.537C359.671 350.781 346.325 318.56 346.325 284.964C346.325 251.368 359.671 219.147 383.427 195.391C407.183 171.635 439.403 158.289 473 158.289V158.285Z" fill="currentColor"/>
</svg>
