<svg width="100%" height="100%" viewBox="0 0 24 25" fill="none" xmlns="http://www.w3.org/2000/svg">
<path d="M12 4.4541C13.0609 4.4541 14.0783 4.8856 14.8284 5.65368C15.5786 6.42176 16 7.46349 16 8.54972C16 9.63594 15.5786 10.6777 14.8284 11.4458C14.0783 12.2138 13.0609 12.6453 12 12.6453C10.9391 12.6453 9.92172 12.2138 9.17157 11.4458C8.42143 10.6777 8 9.63594 8 8.54972C8 7.46349 8.42143 6.42176 9.17157 5.65368C9.92172 4.8856 10.9391 4.4541 12 4.4541ZM12 20.8366C12 20.8366 20 20.8366 20 18.7888C20 16.3314 16.1 13.6692 12 13.6692C7.9 13.6692 4 16.3314 4 18.7888C4 20.8366 12 20.8366 12 20.8366Z" fill="currentColor"/>
</svg>
