<svg width="959" height="982" viewBox="0 0 959 982" fill="none" xmlns="http://www.w3.org/2000/svg">
<path d="M553 245C599.413 245 643.925 262.243 676.744 292.937C709.563 323.63 728 365.26 728 408.667C728 452.074 709.563 493.703 676.744 524.396C643.925 555.09 599.413 572.333 553 572.333C506.587 572.333 462.075 555.09 429.256 524.396C396.437 493.703 378 452.074 378 408.667C378 365.26 396.437 323.63 429.256 292.937C462.075 262.243 506.587 245 553 245ZM553 899.667C553 899.667 903 899.667 903 817.833C903 719.633 732.375 613.25 553 613.25C373.625 613.25 203 719.633 203 817.833C203 899.667 553 899.667 553 899.667Z"/>
</svg>
